<svg width="284" height="61" viewBox="0 0 284 61" fill="none" xmlns="http://www.w3.org/2000/svg">
<path d="M76.7556 20.3413C76.9914 19.9648 77.3332 19.7059 77.7811 19.5647C78.2291 19.4235 78.7831 19.3529 79.4432 19.3529C80.1268 19.3529 80.6691 19.4118 81.0698 19.5294C81.4706 19.6471 81.7771 19.7883 81.9892 19.953C82.2014 20.1177 82.3547 20.3648 82.449 20.6943C82.5904 21.0943 82.6611 21.7062 82.6611 22.5298V33.19C82.6611 36.2963 81.6946 39.1202 79.7614 41.6617C78.8184 42.8618 77.6043 43.8384 76.1191 44.5915C74.6339 45.321 72.9836 45.6857 71.1684 45.6857C69.3767 45.6857 67.7382 45.3092 66.253 44.5562C64.7914 43.8031 63.6008 42.8148 62.6814 41.5911C60.7719 39.0966 59.8171 36.2728 59.8171 33.1194V22.4945C59.8171 21.9297 59.8289 21.5179 59.8524 21.2591C59.8996 20.9767 60.0175 20.659 60.2061 20.306C60.3947 19.953 60.7129 19.7059 61.1608 19.5647C61.6088 19.4235 62.2099 19.3529 62.9643 19.3529C63.7187 19.3529 64.3199 19.4235 64.7678 19.5647C65.2157 19.7059 65.5222 19.953 65.6872 20.306C65.9701 20.8472 66.1116 21.5885 66.1116 22.5298V33.1194C66.1116 34.5549 66.4652 35.9198 67.1724 37.2141C67.5261 37.873 68.0565 38.4024 68.7637 38.8025C69.471 39.2025 70.3079 39.4026 71.2745 39.4026C72.9954 39.4026 74.2803 38.7672 75.129 37.4964C75.9776 36.2257 76.402 34.7549 76.402 33.0841V22.2827C76.402 21.3649 76.5199 20.7178 76.7556 20.3413Z" fill="white"/>
<path d="M102.202 20.4825C102.438 20.0589 102.779 19.7765 103.227 19.6353C103.675 19.4941 104.229 19.4235 104.889 19.4235C105.573 19.4235 106.115 19.4824 106.516 19.6C106.94 19.7177 107.247 19.8589 107.435 20.0236C107.648 20.1883 107.801 20.4354 107.895 20.7649C108.037 21.1414 108.107 21.7415 108.107 22.5651V42.1559C108.107 42.7206 108.084 43.1325 108.037 43.3913C108.013 43.6502 107.907 43.9561 107.718 44.3091C107.388 44.9445 106.469 45.2622 104.96 45.2622C104.041 45.2622 103.404 45.1916 103.051 45.0504C102.697 44.9092 102.402 44.6856 102.166 44.3797C96.8621 37.3199 93.373 32.7076 91.6992 30.5426V42.1559C91.6992 42.7206 91.6757 43.1325 91.6285 43.3913C91.6049 43.6502 91.4989 43.9561 91.3103 44.3091C90.9802 44.9445 90.0608 45.2622 88.552 45.2622C87.0903 45.2622 86.1945 44.9445 85.8645 44.3091C85.6759 43.9561 85.558 43.6384 85.5108 43.356C85.4873 43.0736 85.4755 42.6618 85.4755 42.1206V22.4239C85.4755 21.5297 85.5816 20.8825 85.7937 20.4825C86.0295 20.0589 86.3713 19.7765 86.8192 19.6353C87.2672 19.4941 87.8447 19.4235 88.552 19.4235C89.2592 19.4235 89.8132 19.4941 90.214 19.6353C90.6384 19.753 90.9331 19.8942 91.0981 20.0589C91.1924 20.1295 91.4635 20.4354 91.9114 20.9767C96.8857 27.7305 100.21 32.1899 101.884 34.3549V22.4239C101.884 21.5297 101.99 20.8825 102.202 20.4825Z" fill="white"/>
<path d="M117.186 40.0379H126.804C127.582 40.0379 128.148 40.1321 128.502 40.3203C128.855 40.4851 129.091 40.7557 129.209 41.1322C129.327 41.5087 129.386 42.0147 129.386 42.65C129.386 43.2619 129.327 43.7561 129.209 44.1326C129.091 44.5091 128.891 44.768 128.608 44.9092C128.16 45.1445 127.547 45.2622 126.769 45.2622H114.039C112.388 45.2622 111.422 44.815 111.139 43.9208C110.997 43.5443 110.927 42.9442 110.927 42.1206V22.4945C110.927 21.9533 110.938 21.5532 110.962 21.2944C111.009 21.012 111.127 20.6943 111.316 20.3413C111.646 19.7059 112.565 19.3882 114.074 19.3882C115.724 19.3882 116.702 19.8236 117.009 20.6943C117.127 21.0943 117.186 21.7062 117.186 22.5298V40.0379Z" fill="white"/>
<path d="M131.681 22.4945C131.681 21.9533 131.693 21.5532 131.717 21.2944C131.764 21.012 131.882 20.6943 132.07 20.3413C132.4 19.7059 133.32 19.3882 134.829 19.3882C136.479 19.3882 137.457 19.8236 137.764 20.6943C137.881 21.0943 137.94 21.7062 137.94 22.5298V42.1559C137.94 42.7206 137.917 43.1325 137.87 43.3913C137.846 43.6502 137.74 43.9561 137.551 44.3091C137.221 44.9445 136.302 45.2622 134.793 45.2622C133.143 45.2622 132.176 44.815 131.893 43.9208C131.752 43.5443 131.681 42.9442 131.681 42.1206V22.4945Z" fill="white"/>
<path d="M156.96 38.4848L157.596 38.0259C158.398 37.5553 158.963 37.3199 159.293 37.3199C160.024 37.3199 160.814 37.9789 161.663 39.2967C162.181 40.1203 162.441 40.7792 162.441 41.2734C162.441 41.7676 162.276 42.1794 161.946 42.5089C161.639 42.8383 161.274 43.1325 160.849 43.3913C160.425 43.6502 160.012 43.8973 159.612 44.1326C159.235 44.3679 158.445 44.6738 157.242 45.0504C156.04 45.4269 154.873 45.6151 153.742 45.6151C152.634 45.6151 151.502 45.4739 150.347 45.1916C149.215 44.8856 148.036 44.3914 146.811 43.709C145.608 43.003 144.524 42.1559 143.557 41.1675C142.591 40.1556 141.789 38.8731 141.153 37.3199C140.54 35.7433 140.233 34.0372 140.233 32.2016C140.233 30.3661 140.54 28.7071 141.153 27.2245C141.766 25.7185 142.544 24.483 143.487 23.5182C144.453 22.5298 145.549 21.7062 146.775 21.0473C149.086 19.7765 151.408 19.1411 153.742 19.1411C154.85 19.1411 155.969 19.3176 157.101 19.6706C158.256 20.0001 159.128 20.3413 159.718 20.6943L160.566 21.1885C160.991 21.4473 161.321 21.6591 161.557 21.8238C162.17 22.318 162.476 22.8828 162.476 23.5182C162.476 24.13 162.229 24.7772 161.733 25.4596C160.814 26.7303 159.989 27.3657 159.258 27.3657C158.834 27.3657 158.233 27.1069 157.455 26.5892C156.464 25.789 155.144 25.389 153.494 25.389C151.962 25.389 150.453 25.9185 148.968 26.9774C148.26 27.4952 147.671 28.2247 147.2 29.166C146.728 30.1073 146.492 31.178 146.492 32.3781C146.492 33.5548 146.728 34.6137 147.2 35.555C147.671 36.4963 148.272 37.2376 149.003 37.7788C150.441 38.8143 151.938 39.332 153.494 39.332C154.225 39.332 154.909 39.2378 155.545 39.0496C156.205 38.8613 156.677 38.6731 156.96 38.4848Z" fill="white"/>
<path d="M180.784 20.3413C180.972 19.9883 181.29 19.7412 181.738 19.6C182.186 19.4588 182.752 19.3882 183.436 19.3882C184.119 19.3882 184.662 19.4471 185.062 19.5647C185.463 19.6824 185.77 19.8236 185.982 19.9883C186.194 20.153 186.359 20.3883 186.477 20.6943C186.595 21.0943 186.654 21.7062 186.654 22.5298V42.1206C186.654 42.6618 186.63 43.0736 186.583 43.356C186.559 43.6149 186.453 43.9208 186.265 44.2738C185.935 44.9092 185.015 45.2269 183.506 45.2269C181.856 45.2269 180.89 44.7915 180.607 43.9208C180.465 43.5208 180.395 42.9089 180.395 42.0853V34.9196H171.024V42.1206C171.024 42.6618 171 43.0736 170.953 43.356C170.929 43.6149 170.823 43.9208 170.635 44.2738C170.304 44.9092 169.385 45.2269 167.876 45.2269C166.226 45.2269 165.259 44.7915 164.977 43.9208C164.835 43.5208 164.764 42.9089 164.764 42.0853V22.4945C164.764 21.9533 164.776 21.5532 164.8 21.2944C164.847 21.012 164.965 20.6943 165.153 20.3413C165.483 19.7059 166.403 19.3882 167.912 19.3882C169.562 19.3882 170.54 19.8236 170.847 20.6943C170.965 21.0943 171.024 21.7062 171.024 22.5298V29.7307H180.395V22.4945C180.395 21.9533 180.406 21.5532 180.43 21.2944C180.477 21.012 180.595 20.6943 180.784 20.3413Z" fill="white"/>
<path d="M204.449 21.2238L213.996 40.9204C214.397 41.7205 214.598 42.3206 214.598 42.7206C214.598 43.5678 213.914 44.3326 212.547 45.0151C211.745 45.4151 211.109 45.6151 210.637 45.6151C210.189 45.6151 209.812 45.5092 209.505 45.2975C209.223 45.0857 209.01 44.8621 208.869 44.6268C208.751 44.3915 208.574 44.0385 208.338 43.5678L206.5 39.7556H196.704L194.865 43.5678C194.63 44.0385 194.441 44.3797 194.3 44.5915C194.182 44.8033 193.97 45.0268 193.663 45.2622C193.38 45.4739 193.003 45.5798 192.532 45.5798C192.084 45.5798 191.459 45.3798 190.657 44.9798C189.29 44.3209 188.606 43.5678 188.606 42.7206C188.606 42.3206 188.807 41.7205 189.207 40.9204L198.755 21.1885C199.015 20.6472 199.404 20.2119 199.922 19.8824C200.464 19.5529 201.03 19.3882 201.62 19.3882C202.893 19.3882 203.836 20.0001 204.449 21.2238ZM201.584 29.6954L199.25 34.5314H203.954L201.584 29.6954Z" fill="white"/>
<path d="M236.368 40.8851C236.722 41.7323 236.899 42.3441 236.899 42.7206C236.899 43.6149 236.168 44.3679 234.706 44.9798C233.952 45.3092 233.339 45.4739 232.867 45.4739C232.42 45.4739 232.042 45.368 231.736 45.1563C231.453 44.9209 231.241 44.6856 231.099 44.4503C230.864 44.0032 229.944 41.8735 228.341 38.0612L227.245 38.1318H222.789V42.1206C222.789 42.6618 222.766 43.0736 222.718 43.356C222.695 43.6149 222.589 43.9208 222.4 44.2738C222.07 44.9092 221.151 45.2269 219.642 45.2269C217.992 45.2269 217.025 44.7915 216.742 43.9208C216.601 43.5208 216.53 42.9089 216.53 42.0853V22.4945C216.53 21.9533 216.542 21.5532 216.565 21.2944C216.613 21.012 216.73 20.6943 216.919 20.3413C217.249 19.7059 218.169 19.3882 219.677 19.3882H227.316C229.39 19.3882 231.406 20.1413 233.363 21.6473C234.306 22.3768 235.084 23.3652 235.696 24.6124C236.309 25.8596 236.616 27.2481 236.616 28.7777C236.616 31.4368 235.732 33.6254 233.964 35.3432C234.482 36.5904 235.284 38.4377 236.368 40.8851ZM222.789 31.884H227.316C227.999 31.884 228.683 31.6251 229.367 31.1074C230.05 30.5897 230.392 29.8131 230.392 28.7777C230.392 27.7422 230.05 26.9657 229.367 26.448C228.683 25.9067 227.976 25.6361 227.245 25.6361H222.789V31.884Z" fill="white"/>
<path d="M252.002 29.6601H258.226C259.499 29.7072 260.277 30.0367 260.559 30.6485C260.795 31.0956 260.913 31.7545 260.913 32.6252V40.3909C260.913 41.144 260.583 41.8617 259.923 42.5442C257.943 44.5915 254.972 45.6151 251.012 45.6151C247.499 45.6151 244.446 44.2973 241.853 41.6617C239.26 39.0025 237.963 35.8021 237.963 32.0604C237.963 28.3188 239.283 25.2007 241.924 22.7063C244.564 20.1883 247.676 18.9293 251.259 18.9293C254.041 18.9293 256.67 19.8471 259.145 21.6826C259.782 22.1533 260.1 22.6828 260.1 23.2711C260.1 23.8359 259.829 24.4948 259.286 25.2478C258.367 26.495 257.53 27.1186 256.776 27.1186C256.328 27.1186 255.609 26.8009 254.619 26.1656C253.628 25.5067 252.45 25.1772 251.082 25.1772C249.291 25.1772 247.699 25.8126 246.308 27.0833C244.918 28.3306 244.222 29.9778 244.222 32.0251C244.222 34.0489 244.929 35.7786 246.344 37.2141C247.758 38.626 249.361 39.332 251.153 39.332C252.45 39.332 253.617 39.1202 254.654 38.6966V34.849H251.86C251.13 34.849 250.611 34.7549 250.304 34.5667C249.998 34.3784 249.798 34.1078 249.703 33.7548C249.609 33.3783 249.562 32.8841 249.562 32.2722C249.562 31.6369 249.609 31.1309 249.703 30.7544C249.821 30.3779 250.022 30.119 250.304 29.9778C250.729 29.766 251.295 29.6601 252.002 29.6601Z" fill="white"/>
<path d="M269.997 39.0143H280.888C281.43 39.0143 281.831 39.0378 282.09 39.0849C282.373 39.1084 282.692 39.2143 283.045 39.4026C283.682 39.732 284 40.6498 284 42.1559C284 43.8031 283.564 44.768 282.692 45.0504C282.291 45.1916 281.678 45.2622 280.853 45.2622H266.849C265.199 45.2622 264.232 44.815 263.95 43.9208C263.808 43.5443 263.737 42.9442 263.737 42.1206V22.4945C263.737 21.2944 263.961 20.4825 264.409 20.0589C264.857 19.6118 265.706 19.3882 266.955 19.3882H280.888C281.43 19.3882 281.831 19.4118 282.09 19.4588C282.373 19.4824 282.692 19.5882 283.045 19.7765C283.682 20.106 284 21.0237 284 22.5298C284 24.1771 283.564 25.1419 282.692 25.4243C282.291 25.5655 281.678 25.6361 280.853 25.6361H269.997V29.2013H276.998C277.54 29.2013 277.941 29.2248 278.201 29.2719C278.483 29.2954 278.802 29.4013 279.155 29.5895C279.792 29.919 280.11 30.8368 280.11 32.3428C280.11 33.9901 279.662 34.9549 278.766 35.2373C278.366 35.3785 277.753 35.4491 276.928 35.4491H269.997V39.0143Z" fill="white"/>
<path d="M49.5961 27.0325C48.7368 20.9392 45.719 15.6516 41.4284 11.8674C41.226 11.676 40.9871 11.5272 40.7258 11.4298C40.4646 11.3325 40.1864 11.2887 39.9079 11.301C39.6293 11.3134 39.3561 11.3815 39.1045 11.5015C38.8529 11.6215 38.6281 11.7908 38.4435 11.9994C38.2589 12.208 38.1182 12.4515 38.0299 12.7155C37.9416 12.9795 37.9074 13.2585 37.9295 13.536C37.9515 13.8134 38.0293 14.0836 38.1582 14.3304C38.2871 14.5772 38.4645 14.7956 38.6797 14.9725C42.2588 18.129 44.7646 22.513 45.4835 27.6104C46.9878 38.2769 40.1218 48.1474 29.8575 50.6368L29.0032 44.5792L17.8233 54.5234L31.319 61L30.4359 54.738C42.9307 51.9119 51.4134 39.9184 49.5961 27.0325ZM32.0178 6.47664L18.5221 0L19.4052 6.26202C6.91039 9.08812 -1.57232 21.0816 0.244981 33.9675C1.10433 40.0608 4.12207 45.3484 8.41274 49.1326C8.61511 49.324 8.85404 49.4729 9.11527 49.5702C9.3765 49.6675 9.65468 49.7113 9.93324 49.699C10.2118 49.6866 10.485 49.6185 10.7366 49.4985C10.9882 49.3785 11.213 49.2092 11.3976 49.0006C11.5823 48.7921 11.7229 48.5485 11.8112 48.2845C11.8995 48.0205 11.9337 47.7415 11.9116 47.464C11.8896 47.1866 11.8118 46.9164 11.6829 46.6696C11.554 46.4228 11.3766 46.2044 11.1614 46.0275C7.58228 42.871 5.07647 38.487 4.35758 33.3896C2.85328 22.7231 9.71926 12.8526 19.9836 10.3632L20.8379 16.4208L32.0178 6.47664Z" fill="white"/>
<path d="M40.8741 4.62307L19.0244 26.4335C18.4577 26.9991 18.8598 27.9661 19.6603 27.9661H24.6844L16.9198 37.2668C16.4323 37.8521 16.8457 38.7397 17.6085 38.7397H21.0867L10.2936 54.9003L30.3445 34.8855C30.9111 34.3199 30.509 33.3529 29.7085 33.3529H26.4833L34.2478 24.0522C34.7353 23.4668 34.3219 22.5792 33.5592 22.5792H28.2821L40.8741 4.62307Z" fill="white"/>
</svg>
