<svg width="455" height="108" viewBox="0 0 455 108" fill="none" xmlns="http://www.w3.org/2000/svg">
<path d="M126.778 37.8535C127.147 37.2621 127.683 36.8554 128.386 36.6336C129.088 36.4119 129.957 36.301 130.992 36.301C132.064 36.301 132.914 36.3934 133.542 36.5782C134.171 36.763 134.651 36.9848 134.984 37.2436C135.317 37.5023 135.557 37.8905 135.705 38.408C135.927 39.0364 136.038 39.9975 136.038 41.2913V58.0367C136.038 62.9161 134.522 67.352 131.491 71.3443C130.012 73.2295 128.108 74.7636 125.78 75.9465C123.451 77.0924 120.863 77.6654 118.017 77.6654C115.207 77.6654 112.638 77.0739 110.31 75.891C108.018 74.7081 106.151 73.1556 104.709 71.2334C101.715 67.315 100.218 62.8792 100.218 57.9258V41.2359C100.218 40.3487 100.236 39.7018 100.273 39.2952C100.347 38.8516 100.532 38.3525 100.828 37.7981C101.124 37.2436 101.623 36.8554 102.325 36.6336C103.027 36.4119 103.97 36.301 105.153 36.301C106.336 36.301 107.278 36.4119 107.981 36.6336C108.683 36.8554 109.164 37.2436 109.422 37.7981C109.866 38.6483 110.088 39.8127 110.088 41.2913V57.9258C110.088 60.1807 110.642 62.3247 111.751 64.3578C112.306 65.3928 113.137 66.2246 114.246 66.853C115.355 67.4814 116.668 67.7956 118.183 67.7956C120.882 67.7956 122.896 66.7975 124.227 64.8014C125.558 62.8052 126.223 60.4949 126.223 57.8703V40.9032C126.223 39.4615 126.408 38.445 126.778 37.8535ZM166.677 38.0753C167.047 37.4099 167.583 36.9663 168.285 36.7445C168.988 36.5228 169.856 36.4119 170.892 36.4119C171.964 36.4119 172.814 36.5043 173.442 36.6891C174.108 36.8739 174.588 37.0957 174.884 37.3545C175.216 37.6132 175.457 38.0014 175.605 38.5189C175.826 39.1103 175.937 40.053 175.937 41.3468V72.1206C175.937 73.0077 175.9 73.6546 175.826 74.0612C175.789 74.4679 175.623 74.9484 175.327 75.5029C174.81 76.501 173.368 77 171.002 77C169.561 77 168.563 76.8891 168.008 76.6673C167.454 76.4455 166.992 76.0943 166.622 75.6138C158.305 64.5241 152.834 57.2789 150.209 53.8781V72.1206C150.209 73.0077 150.172 73.6546 150.098 74.0612C150.061 74.4679 149.895 74.9484 149.599 75.5029C149.082 76.501 147.64 77 145.274 77C142.983 77 141.578 76.501 141.06 75.5029C140.765 74.9484 140.58 74.4494 140.506 74.0058C140.469 73.5622 140.45 72.9153 140.45 72.0651V41.125C140.45 39.7203 140.617 38.7037 140.949 38.0753C141.319 37.4099 141.855 36.9663 142.557 36.7445C143.26 36.5228 144.165 36.4119 145.274 36.4119C146.383 36.4119 147.252 36.5228 147.88 36.7445C148.546 36.9294 149.008 37.1512 149.267 37.4099C149.415 37.5208 149.84 38.0014 150.542 38.8516C158.342 49.4607 163.554 56.4657 166.178 59.8665V41.125C166.178 39.7203 166.345 38.7037 166.677 38.0753ZM190.172 68.7937H205.254C206.474 68.7937 207.361 68.9415 207.916 69.2372C208.47 69.496 208.84 69.9211 209.025 70.5126C209.21 71.104 209.302 71.8988 209.302 72.8968C209.302 73.8579 209.21 74.6342 209.025 75.2257C208.84 75.8171 208.526 76.2237 208.082 76.4455C207.38 76.8152 206.419 77 205.199 77H185.237C182.65 77 181.134 76.2977 180.691 74.893C180.469 74.3015 180.358 73.3589 180.358 72.0651V41.2359C180.358 40.3856 180.377 39.7572 180.413 39.3506C180.487 38.907 180.672 38.408 180.968 37.8535C181.485 36.8554 182.927 36.3564 185.293 36.3564C187.881 36.3564 189.415 37.0403 189.895 38.408C190.08 39.0364 190.172 39.9975 190.172 41.2913V68.7937ZM212.901 41.2359C212.901 40.3856 212.92 39.7572 212.957 39.3506C213.031 38.907 213.216 38.408 213.511 37.8535C214.029 36.8554 215.471 36.3564 217.836 36.3564C220.424 36.3564 221.958 37.0403 222.439 38.408C222.623 39.0364 222.716 39.9975 222.716 41.2913V72.1206C222.716 73.0077 222.679 73.6546 222.605 74.0612C222.568 74.4679 222.402 74.9484 222.106 75.5029C221.588 76.501 220.147 77 217.781 77C215.193 77 213.678 76.2977 213.234 74.893C213.012 74.3015 212.901 73.3589 212.901 72.0651V41.2359ZM252.538 66.3539L253.536 65.6331C254.793 64.8938 255.68 64.5241 256.197 64.5241C257.343 64.5241 258.582 65.5592 259.912 67.6292C260.726 68.923 261.132 69.9581 261.132 70.7343C261.132 71.5106 260.874 72.1575 260.356 72.675C259.875 73.1926 259.303 73.6546 258.637 74.0612C257.972 74.4679 257.325 74.856 256.696 75.2257C256.105 75.5953 254.867 76.0759 252.981 76.6673C251.096 77.2588 249.266 77.5545 247.492 77.5545C245.755 77.5545 243.98 77.3327 242.169 76.8891C240.395 76.4086 238.546 75.6323 236.624 74.5603C234.739 73.4513 233.039 72.1206 231.523 70.568C230.007 68.9785 228.751 66.9639 227.752 64.5241C226.791 62.0474 226.311 59.3674 226.311 56.4841C226.311 53.6008 226.791 50.9948 227.752 48.6659C228.714 46.3001 229.933 44.3594 231.412 42.8439C232.928 41.2913 234.647 39.9975 236.569 38.9625C240.191 36.9663 243.832 35.9683 247.492 35.9683C249.229 35.9683 250.985 36.2455 252.76 36.8C254.571 37.3175 255.939 37.8535 256.863 38.408L258.194 39.1843C258.859 39.5909 259.376 39.9236 259.746 40.1823C260.707 40.9586 261.188 41.8458 261.188 42.8439C261.188 43.805 260.8 44.8215 260.023 45.8935C258.582 47.8897 257.288 48.8877 256.142 48.8877C255.477 48.8877 254.534 48.4811 253.314 47.6679C251.762 46.411 249.691 45.7826 247.104 45.7826C244.701 45.7826 242.335 46.6143 240.007 48.2778C238.898 49.091 237.973 50.237 237.234 51.7156C236.495 53.1942 236.125 54.8761 236.125 56.7614C236.125 58.6097 236.495 60.2731 237.234 61.7517C237.973 63.2303 238.916 64.3948 240.062 65.245C242.317 66.8714 244.664 67.6847 247.104 67.6847C248.25 67.6847 249.322 67.5368 250.32 67.2411C251.355 66.9454 252.094 66.6497 252.538 66.3539ZM289.894 37.8535C290.19 37.299 290.689 36.9109 291.391 36.6891C292.093 36.4673 292.981 36.3564 294.053 36.3564C295.125 36.3564 295.975 36.4488 296.603 36.6336C297.232 36.8185 297.712 37.0403 298.045 37.299C298.378 37.5578 298.636 37.9274 298.821 38.408C299.006 39.0364 299.098 39.9975 299.098 41.2913V72.0651C299.098 72.9153 299.061 73.5622 298.987 74.0058C298.95 74.4124 298.784 74.893 298.488 75.4474C297.971 76.4455 296.529 76.9446 294.163 76.9446C291.576 76.9446 290.06 76.2607 289.617 74.893C289.395 74.2646 289.284 73.3034 289.284 72.0097V60.7537H274.59V72.0651C274.59 72.9153 274.553 73.5622 274.479 74.0058C274.442 74.4124 274.276 74.893 273.98 75.4474C273.463 76.4455 272.021 76.9446 269.655 76.9446C267.068 76.9446 265.552 76.2607 265.109 74.893C264.887 74.2646 264.776 73.3034 264.776 72.0097V41.2359C264.776 40.3856 264.794 39.7572 264.831 39.3506C264.905 38.907 265.09 38.408 265.386 37.8535C265.903 36.8554 267.345 36.3564 269.711 36.3564C272.298 36.3564 273.832 37.0403 274.313 38.408C274.498 39.0364 274.59 39.9975 274.59 41.2913V52.6028H289.284V41.2359C289.284 40.3856 289.302 39.7572 289.339 39.3506C289.413 38.907 289.598 38.408 289.894 37.8535ZM327.001 39.2397L341.972 70.1799C342.6 71.4367 342.915 72.3793 342.915 73.0077C342.915 74.3385 341.843 75.5399 339.699 76.6119C338.442 77.2403 337.444 77.5545 336.704 77.5545C336.002 77.5545 335.411 77.3881 334.93 77.0554C334.486 76.7228 334.154 76.3716 333.932 76.0019C333.747 75.6323 333.47 75.0778 333.1 74.3385L330.217 68.3501H314.858L311.974 74.3385C311.605 75.0778 311.309 75.6138 311.087 75.9465C310.902 76.2792 310.57 76.6303 310.089 77C309.646 77.3327 309.054 77.499 308.315 77.499C307.613 77.499 306.633 77.1848 305.376 76.5564C303.232 75.5214 302.16 74.3385 302.16 73.0077C302.16 72.3793 302.474 71.4367 303.103 70.1799L318.074 39.1843C318.48 38.3341 319.09 37.6502 319.904 37.1327C320.754 36.6152 321.641 36.3564 322.565 36.3564C324.561 36.3564 326.04 37.3175 327.001 39.2397ZM322.51 52.5473L318.85 60.1437H326.225L322.51 52.5473ZM377.051 70.1244C377.606 71.4552 377.883 72.4163 377.883 73.0077C377.883 74.4124 376.737 75.5953 374.445 76.5564C373.262 77.0739 372.301 77.3327 371.562 77.3327C370.86 77.3327 370.268 77.1663 369.788 76.8337C369.344 76.464 369.011 76.0943 368.789 75.7247C368.42 75.0223 366.978 71.677 364.465 65.6886L362.746 65.7994H355.759V72.0651C355.759 72.9153 355.722 73.5622 355.648 74.0058C355.611 74.4124 355.445 74.893 355.149 75.4474C354.632 76.4455 353.19 76.9446 350.824 76.9446C348.237 76.9446 346.721 76.2607 346.277 74.893C346.056 74.2646 345.945 73.3034 345.945 72.0097V41.2359C345.945 40.3856 345.963 39.7572 346 39.3506C346.074 38.907 346.259 38.408 346.555 37.8535C347.072 36.8554 348.514 36.3564 350.88 36.3564H362.857C366.109 36.3564 369.27 37.5393 372.338 39.9051C373.817 41.051 375.037 42.6036 375.998 44.5628C376.959 46.5219 377.439 48.7029 377.439 51.1057C377.439 55.2828 376.053 58.7205 373.281 61.419C374.094 63.3782 375.351 66.28 377.051 70.1244ZM355.759 55.9851H362.857C363.929 55.9851 365.001 55.5785 366.073 54.7652C367.145 53.952 367.681 52.7321 367.681 51.1057C367.681 49.4792 367.145 48.2593 366.073 47.4461C365.001 46.5959 363.892 46.1708 362.746 46.1708H355.759V55.9851ZM401.565 52.4919H411.324C413.32 52.5658 414.54 53.0833 414.983 54.0444C415.353 54.7468 415.538 55.7818 415.538 57.1495V69.3481C415.538 70.531 415.02 71.6585 413.985 72.7305C410.88 75.9465 406.222 77.5545 400.012 77.5545C394.504 77.5545 389.717 75.4844 385.651 71.3443C381.585 67.1672 379.552 62.1399 379.552 56.2623C379.552 50.3848 381.622 45.4869 385.762 41.5685C389.902 37.6132 394.781 35.6356 400.4 35.6356C404.762 35.6356 408.884 37.0772 412.765 39.9605C413.763 40.6999 414.262 41.5316 414.262 42.4557C414.262 43.3429 413.837 44.3779 412.987 45.5608C411.545 47.52 410.233 48.4996 409.05 48.4996C408.348 48.4996 407.22 48.0005 405.668 47.0025C404.115 45.9674 402.267 45.4499 400.123 45.4499C397.314 45.4499 394.818 46.448 392.637 48.4441C390.456 50.4033 389.366 52.9909 389.366 56.2069C389.366 59.3859 390.475 62.1029 392.693 64.3578C394.911 66.5757 397.424 67.6847 400.234 67.6847C402.267 67.6847 404.097 67.352 405.723 66.6866V60.6428H401.343C400.197 60.6428 399.384 60.4949 398.903 60.1992C398.423 59.9034 398.108 59.4783 397.96 58.9239C397.813 58.3324 397.739 57.5561 397.739 56.595C397.739 55.597 397.813 54.8022 397.96 54.2108C398.145 53.6193 398.46 53.2127 398.903 52.9909C399.568 52.6582 400.456 52.4919 401.565 52.4919ZM429.78 67.1857H446.858C447.709 67.1857 448.337 67.2226 448.744 67.2966C449.187 67.3335 449.686 67.4999 450.241 67.7956C451.239 68.3131 451.738 69.7548 451.738 72.1206C451.738 74.7081 451.054 76.2237 449.686 76.6673C449.058 76.8891 448.097 77 446.803 77H424.846C422.258 77 420.742 76.2977 420.299 74.893C420.077 74.3015 419.966 73.3589 419.966 72.0651V41.2359C419.966 39.3506 420.317 38.0753 421.02 37.4099C421.722 36.7076 423.053 36.3564 425.012 36.3564H446.858C447.709 36.3564 448.337 36.3934 448.744 36.4673C449.187 36.5043 449.686 36.6706 450.241 36.9663C451.239 37.4839 451.738 38.9255 451.738 41.2913C451.738 43.8789 451.054 45.3945 449.686 45.8381C449.058 46.0599 448.097 46.1708 446.803 46.1708H429.78V51.771H440.759C441.609 51.771 442.238 51.808 442.644 51.8819C443.088 51.9189 443.587 52.0852 444.142 52.381C445.14 52.8985 445.639 54.3401 445.639 56.7059C445.639 59.2935 444.936 60.8091 443.532 61.2527C442.903 61.4745 441.942 61.5854 440.648 61.5854H429.78V67.1857Z" fill="white"/>
<path d="M84.1914 48.3643C82.8439 38.7927 78.1121 30.4867 71.3843 24.5425C71.067 24.2418 70.6923 24.008 70.2827 23.8551C69.8731 23.7023 69.4369 23.6335 69.0002 23.6528C68.5634 23.6722 68.135 23.7793 67.7405 23.9677C67.346 24.1562 66.9935 24.4222 66.704 24.7498C66.4145 25.0774 66.1939 25.46 66.0555 25.8747C65.917 26.2894 65.8635 26.7277 65.898 27.1635C65.9326 27.5994 66.0546 28.0238 66.2567 28.4114C66.4588 28.7991 66.7369 29.1421 67.0744 29.42C72.6865 34.3784 76.6156 41.2649 77.7428 49.2721C80.1016 66.0273 69.3357 81.5322 53.2411 85.4426L51.9016 75.9272L34.3715 91.5478L55.5328 101.722L54.1481 91.8849C73.74 87.4456 87.0409 68.6058 84.1914 48.3643ZM56.6284 16.0745L35.4671 5.90077L36.8519 15.7374C17.2599 20.1767 3.959 39.0165 6.80855 59.258C8.15601 68.8296 12.8878 77.1355 19.6156 83.0798C19.933 83.3805 20.3076 83.6143 20.7172 83.7671C21.1268 83.92 21.563 83.9888 21.9998 83.9695C22.4366 83.9501 22.865 83.843 23.2595 83.6546C23.654 83.4661 24.0065 83.2001 24.296 82.8725C24.5855 82.5449 24.806 82.1623 24.9445 81.7476C25.0829 81.3329 25.1365 80.8946 25.1019 80.4588C25.0673 80.0229 24.9454 79.5985 24.7432 79.2108C24.5411 78.8232 24.263 78.4801 23.9255 78.2023C18.3135 73.2439 14.3843 66.3574 13.2571 58.3502C10.8984 41.595 21.6643 26.0901 37.7588 22.1796L39.0983 31.695L56.6284 16.0745Z" fill="white"/>
<path d="M70.5152 13.1628L36.2547 47.4233C35.3662 48.3118 35.9967 49.8307 37.2518 49.8307H45.1297L32.9548 64.4406C32.1904 65.3601 32.8386 66.7544 34.0346 66.7544H39.4885L22.5648 92.1398L54.0047 60.7C54.8932 59.8115 54.2627 58.2926 53.0076 58.2926H47.9503L60.1252 43.6827C60.8896 42.7632 60.2414 41.3689 59.0454 41.3689H50.7709L70.5152 13.1628Z" fill="white"/>
</svg>
