<svg width="91" height="108" viewBox="0 0 91 108" fill="none" xmlns="http://www.w3.org/2000/svg">
<path d="M84.1914 48.3643C82.8439 38.7927 78.1121 30.4867 71.3843 24.5425C71.067 24.2418 70.6923 24.008 70.2827 23.8551C69.8731 23.7023 69.4369 23.6335 69.0002 23.6528C68.5634 23.6722 68.135 23.7793 67.7405 23.9677C67.346 24.1562 66.9935 24.4222 66.704 24.7498C66.4145 25.0774 66.1939 25.46 66.0555 25.8747C65.917 26.2894 65.8635 26.7277 65.898 27.1635C65.9326 27.5994 66.0546 28.0238 66.2567 28.4114C66.4588 28.7991 66.7369 29.1421 67.0744 29.42C72.6865 34.3784 76.6156 41.2649 77.7428 49.2721C80.1016 66.0273 69.3357 81.5322 53.2411 85.4426L51.9016 75.9272L34.3715 91.5478L55.5328 101.722L54.1481 91.8849C73.74 87.4456 87.0409 68.6058 84.1914 48.3643ZM56.6284 16.0745L35.4671 5.90077L36.8519 15.7374C17.2599 20.1767 3.959 39.0165 6.80855 59.258C8.15601 68.8296 12.8878 77.1355 19.6156 83.0798C19.933 83.3805 20.3076 83.6143 20.7172 83.7671C21.1268 83.92 21.563 83.9888 21.9998 83.9695C22.4366 83.9501 22.865 83.843 23.2595 83.6546C23.654 83.4661 24.0065 83.2001 24.296 82.8725C24.5854 82.5449 24.806 82.1623 24.9445 81.7476C25.0829 81.3329 25.1365 80.8946 25.1019 80.4588C25.0673 80.0229 24.9454 79.5985 24.7432 79.2108C24.5411 78.8232 24.263 78.4801 23.9255 78.2023C18.3135 73.2439 14.3843 66.3574 13.2571 58.3502C10.8984 41.595 21.6643 26.0901 37.7588 22.1796L39.0983 31.695L56.6284 16.0745Z" fill="white"/>
<path d="M70.5152 13.1628L36.2547 47.4233C35.3662 48.3118 35.9967 49.8307 37.2518 49.8307H45.1297L32.9548 64.4406C32.1904 65.3601 32.8386 66.7544 34.0346 66.7544H39.4885L22.5648 92.1398L54.0047 60.7C54.8932 59.8115 54.2627 58.2926 53.0076 58.2926H47.9503L60.1252 43.6827C60.8896 42.7632 60.2414 41.3689 59.0454 41.3689H50.7709L70.5152 13.1628Z" fill="white"/>
</svg>
